# xmcd
#
# Track frame offsets:
# 150
# 15534
# 30658
# 44507
# 63889
# 82538
# 94711
# 106596
# 120513
# 139033
# 154026
# 166703
# 185872
# 204615
# 220709
#
# Disc length: 3206 seconds
#
#
# Revision: 0
# Processed by: cddbd v1.5.2PL0 Copyright (c) Steve Scherf et al.
# Submitted via: FreeRIP 2.945 
#
DISCID=b40c840f
DTITLE=OS 3 XIRUS - O site do alemão
DYEAR=1900
DGENRE=
TTITLE0=O Site do Alemão
TTITLE1=Consertando a Bunda
TTITLE2=Homem certinho a mulher não quer
TTITLE3=Tão querendo me castrar
TTITLE4=Corre, Fritz
TTITLE5=Todo mundo abre as pernas
TTITLE6=Seu Schmit
TTITLE7=Incendiando o pavio
TTITLE8=Terror no sertão
TTITLE9=Minha bela
TTITLE10=Que pena
TTITLE11=O juiz do céo
TTITLE12=Facão degolador
TTITLE13=Meu caxambu
TTITLE14=Oração pela terceira idade
EXTD=
EXTT0=
EXTT1=
EXTT2=
EXTT3=
EXTT4=
EXTT5=
EXTT6=
EXTT7=
EXTT8=
EXTT9=
EXTT10=
EXTT11=
EXTT12=
EXTT13=
EXTT14=
PLAYORDER=
